<mxfile host="Electron" agent="Mozilla/5.0 (Windows NT 10.0; Win64; x64) AppleWebKit/537.36 (KHTML, like Gecko) draw.io/26.2.15 Chrome/134.0.6998.205 Electron/35.2.1 Safari/537.36" version="26.2.15">
  <diagram name="Seite-1" id="Z7S-_Ree4lsK4GOV4O88">
    <mxGraphModel dx="1025" dy="570" grid="1" gridSize="10" guides="1" tooltips="1" connect="1" arrows="1" fold="1" page="1" pageScale="1" pageWidth="827" pageHeight="1169" math="0" shadow="0">
      <root>
        <mxCell id="0" />
        <mxCell id="1" parent="0" />
        <mxCell id="gaPC7vkv0JOOV6hIETMj-6" value="&lt;table data-end=&quot;1737&quot; data-start=&quot;1583&quot; class=&quot;min-w-full&quot;&gt;&lt;thead data-end=&quot;1611&quot; data-start=&quot;1583&quot;&gt;&lt;tr data-end=&quot;1611&quot; data-start=&quot;1583&quot;&gt;&lt;th data-end=&quot;1611&quot; data-start=&quot;1583&quot;&gt;&lt;font face=&quot;Courier New&quot;&gt;Partition Key: &lt;code style=&quot;&quot; data-end=&quot;1609&quot; data-start=&quot;1600&quot;&gt;team_id&lt;/code&gt;&lt;/font&gt;&lt;/th&gt;&lt;/tr&gt;&lt;/thead&gt;&lt;tbody data-end=&quot;1737&quot; data-start=&quot;1641&quot;&gt;&lt;tr data-end=&quot;1669&quot; data-start=&quot;1641&quot;&gt;&lt;td data-end=&quot;1669&quot; data-start=&quot;1641&quot; class=&quot;max-w-[calc(var(--thread-content-max-width)*2/3)]&quot;&gt;&lt;code data-end=&quot;1652&quot; data-start=&quot;1643&quot;&gt;&lt;font face=&quot;Courier New&quot;&gt;team_id&lt;/font&gt;&lt;/code&gt;&lt;/td&gt;&lt;/tr&gt;&lt;tr data-end=&quot;1698&quot; data-start=&quot;1670&quot;&gt;&lt;td data-end=&quot;1698&quot; data-start=&quot;1670&quot; class=&quot;max-w-[calc(var(--thread-content-max-width)*2/3)]&quot;&gt;&lt;code data-end=&quot;1684&quot; data-start=&quot;1672&quot;&gt;&lt;font face=&quot;Courier New&quot;&gt;trainer_id&lt;/font&gt;&lt;/code&gt;&lt;/td&gt;&lt;/tr&gt;&lt;tr data-end=&quot;1737&quot; data-start=&quot;1699&quot;&gt;&lt;td data-end=&quot;1737&quot; data-start=&quot;1699&quot; class=&quot;max-w-[calc(var(--thread-content-max-width)*2/3)]&quot;&gt;&lt;font face=&quot;Courier New&quot;&gt;&lt;code style=&quot;&quot; data-end=&quot;1715&quot; data-start=&quot;1701&quot;&gt;trainer_name&lt;/code&gt;&amp;nbsp;&lt;/font&gt;&lt;/td&gt;&lt;/tr&gt;&lt;/tbody&gt;&lt;/table&gt;" style="rounded=0;whiteSpace=wrap;html=1;shape=ellipse;perimeter=ellipsePerimeter;aspect=fixed;" parent="1" vertex="1">
          <mxGeometry x="30" y="320" width="280" height="170" as="geometry" />
        </mxCell>
        <mxCell id="gaPC7vkv0JOOV6hIETMj-1" value="&lt;table data-end=&quot;1120&quot; data-start=&quot;816&quot; class=&quot;min-w-full&quot;&gt;&lt;thead data-end=&quot;876&quot; data-start=&quot;816&quot;&gt;&lt;tr data-end=&quot;876&quot; data-start=&quot;816&quot;&gt;&lt;th data-end=&quot;843&quot; data-start=&quot;816&quot;&gt;&lt;font face=&quot;Garamond&quot;&gt;Partition Key: &lt;code data-end=&quot;842&quot; data-start=&quot;833&quot;&gt;team_id&lt;/code&gt;&lt;/font&gt;&lt;/th&gt;&lt;th data-end=&quot;876&quot; data-start=&quot;843&quot;&gt;&lt;font face=&quot;Garamond&quot;&gt;Clustering Key: &lt;code data-end=&quot;874&quot; data-start=&quot;861&quot;&gt;spiel_datum&lt;/code&gt;&lt;/font&gt;&lt;/th&gt;&lt;/tr&gt;&lt;/thead&gt;&lt;tbody data-end=&quot;1120&quot; data-start=&quot;938&quot;&gt;&lt;tr data-end=&quot;998&quot; data-start=&quot;938&quot;&gt;&lt;td data-end=&quot;965&quot; data-start=&quot;938&quot; class=&quot;max-w-[calc(var(--thread-content-max-width)*2/3)]&quot;&gt;&lt;code data-end=&quot;949&quot; data-start=&quot;940&quot;&gt;&lt;font face=&quot;Garamond&quot;&gt;team_id&lt;/font&gt;&lt;/code&gt;&lt;/td&gt;&lt;td data-end=&quot;998&quot; data-start=&quot;965&quot; class=&quot;max-w-[calc(var(--thread-content-max-width)*2/3)]&quot;&gt;&lt;code data-end=&quot;977&quot; data-start=&quot;967&quot;&gt;&lt;font face=&quot;Garamond&quot;&gt;spiel_id&lt;/font&gt;&lt;/code&gt;&lt;/td&gt;&lt;/tr&gt;&lt;tr data-end=&quot;1059&quot; data-start=&quot;999&quot;&gt;&lt;td data-end=&quot;1026&quot; data-start=&quot;999&quot; class=&quot;max-w-[calc(var(--thread-content-max-width)*2/3)]&quot;&gt;&lt;code data-end=&quot;1014&quot; data-start=&quot;1001&quot;&gt;&lt;font face=&quot;Garamond&quot;&gt;spiel_datum&lt;/font&gt;&lt;/code&gt;&lt;/td&gt;&lt;td data-end=&quot;1059&quot; data-start=&quot;1026&quot; class=&quot;max-w-[calc(var(--thread-content-max-width)*2/3)]&quot;&gt;&lt;code data-end=&quot;1033&quot; data-start=&quot;1028&quot;&gt;&lt;font face=&quot;Garamond&quot;&gt;ort&lt;/font&gt;&lt;/code&gt;&lt;/td&gt;&lt;/tr&gt;&lt;tr data-end=&quot;1120&quot; data-start=&quot;1060&quot;&gt;&lt;td data-end=&quot;1087&quot; data-start=&quot;1060&quot; class=&quot;max-w-[calc(var(--thread-content-max-width)*2/3)]&quot;&gt;&lt;code data-end=&quot;1078&quot; data-start=&quot;1062&quot;&gt;&lt;font face=&quot;Garamond&quot;&gt;gegner_team_id&lt;/font&gt;&lt;/code&gt;&lt;/td&gt;&lt;td data-end=&quot;1120&quot; data-start=&quot;1087&quot; class=&quot;max-w-[calc(var(--thread-content-max-width)*2/3)]&quot;&gt;&lt;br&gt;&lt;/td&gt;&lt;/tr&gt;&lt;/tbody&gt;&lt;/table&gt;" style="rounded=0;whiteSpace=wrap;html=1;shape=ellipse;perimeter=ellipsePerimeter;aspect=fixed;" parent="1" vertex="1">
          <mxGeometry x="30" y="100" width="280" height="190" as="geometry" />
        </mxCell>
        <mxCell id="gaPC7vkv0JOOV6hIETMj-2" value="&amp;nbsp;team_spiele_by_team" style="text;html=1;align=center;verticalAlign=middle;resizable=0;points=[];autosize=1;strokeColor=none;fillColor=none;" parent="1" vertex="1">
          <mxGeometry x="100" y="108" width="140" height="30" as="geometry" />
        </mxCell>
        <mxCell id="gaPC7vkv0JOOV6hIETMj-3" value="&lt;table data-end=&quot;1491&quot; data-start=&quot;1192&quot; class=&quot;min-w-full&quot;&gt;&lt;thead data-end=&quot;1251&quot; data-start=&quot;1192&quot;&gt;&lt;tr data-end=&quot;1251&quot; data-start=&quot;1192&quot;&gt;&lt;th data-end=&quot;1219&quot; data-start=&quot;1192&quot;&gt;&lt;font face=&quot;Courier New&quot;&gt;Partition Key: &lt;code data-end=&quot;1218&quot; data-start=&quot;1209&quot;&gt;team_id&lt;/code&gt;&lt;/font&gt;&lt;/th&gt;&lt;th data-end=&quot;1251&quot; data-start=&quot;1219&quot;&gt;&lt;font face=&quot;Courier New&quot;&gt;Clustering Key: &lt;code data-end=&quot;1249&quot; data-start=&quot;1237&quot;&gt;spieler_id&lt;/code&gt;&lt;/font&gt;&lt;/th&gt;&lt;/tr&gt;&lt;/thead&gt;&lt;tbody data-end=&quot;1491&quot; data-start=&quot;1312&quot;&gt;&lt;tr data-end=&quot;1371&quot; data-start=&quot;1312&quot;&gt;&lt;td data-end=&quot;1339&quot; data-start=&quot;1312&quot; class=&quot;max-w-[calc(var(--thread-content-max-width)*2/3)]&quot;&gt;&lt;code data-end=&quot;1323&quot; data-start=&quot;1314&quot;&gt;&lt;font face=&quot;Courier New&quot;&gt;team_id&lt;/font&gt;&lt;/code&gt;&lt;/td&gt;&lt;td data-end=&quot;1371&quot; data-start=&quot;1339&quot; class=&quot;max-w-[calc(var(--thread-content-max-width)*2/3)]&quot;&gt;&lt;code data-end=&quot;1353&quot; data-start=&quot;1341&quot;&gt;&lt;font face=&quot;Courier New&quot;&gt;spieler_id&lt;/font&gt;&lt;/code&gt;&lt;/td&gt;&lt;/tr&gt;&lt;tr data-end=&quot;1431&quot; data-start=&quot;1372&quot;&gt;&lt;td data-end=&quot;1399&quot; data-start=&quot;1372&quot; class=&quot;max-w-[calc(var(--thread-content-max-width)*2/3)]&quot;&gt;&lt;code data-end=&quot;1380&quot; data-start=&quot;1374&quot;&gt;&lt;font face=&quot;Courier New&quot;&gt;name&lt;/font&gt;&lt;/code&gt;&lt;/td&gt;&lt;td data-end=&quot;1431&quot; data-start=&quot;1399&quot; class=&quot;max-w-[calc(var(--thread-content-max-width)*2/3)]&quot;&gt;&lt;code data-end=&quot;1411&quot; data-start=&quot;1401&quot;&gt;&lt;font face=&quot;Courier New&quot;&gt;position&lt;/font&gt;&lt;/code&gt;&lt;/td&gt;&lt;/tr&gt;&lt;tr data-end=&quot;1491&quot; data-start=&quot;1432&quot;&gt;&lt;td data-end=&quot;1459&quot; data-start=&quot;1432&quot; class=&quot;max-w-[calc(var(--thread-content-max-width)*2/3)]&quot;&gt;&lt;code data-end=&quot;1448&quot; data-start=&quot;1434&quot;&gt;&lt;font face=&quot;Courier New&quot;&gt;geburtsdatum&lt;/font&gt;&lt;/code&gt;&lt;/td&gt;&lt;td data-end=&quot;1491&quot; data-start=&quot;1459&quot; class=&quot;max-w-[calc(var(--thread-content-max-width)*2/3)]&quot;&gt;&lt;/td&gt;&lt;/tr&gt;&lt;/tbody&gt;&lt;/table&gt;" style="rounded=0;whiteSpace=wrap;html=1;shape=ellipse;perimeter=ellipsePerimeter;aspect=fixed;" parent="1" vertex="1">
          <mxGeometry x="340" y="100" width="280" height="190" as="geometry" />
        </mxCell>
        <mxCell id="gaPC7vkv0JOOV6hIETMj-4" value="&lt;p&gt;&lt;span data-end=&quot;1158&quot; data-start=&quot;1127&quot;&gt;&amp;nbsp;spieler_by_team&lt;/span&gt;&lt;/p&gt;&lt;br&gt;&lt;p class=&quot;&quot; data-end=&quot;1190&quot; data-start=&quot;1159&quot;&gt;&lt;/p&gt;" style="text;html=1;align=center;verticalAlign=middle;resizable=0;points=[];autosize=1;strokeColor=none;fillColor=none;" parent="1" vertex="1">
          <mxGeometry x="410" y="100" width="110" height="80" as="geometry" />
        </mxCell>
        <mxCell id="gaPC7vkv0JOOV6hIETMj-5" value="&amp;nbsp;trainer_by_team" style="text;html=1;align=center;verticalAlign=middle;resizable=0;points=[];autosize=1;strokeColor=none;fillColor=none;" parent="1" vertex="1">
          <mxGeometry x="115" y="330" width="110" height="30" as="geometry" />
        </mxCell>
      </root>
    </mxGraphModel>
  </diagram>
</mxfile>
